{"glyphs":{"0":{"ha":667,"x_min":41,"x_max":626,"o":"m 334 700 q 561 609 495 700 q 626 344 626 517 l 626 344 q 561 80 626 171 q 334 -12 495 -12 l 334 -12 q 107 80 172 -12 q 41 344 41 171 l 41 344 q 107 609 41 517 q 334 700 172 700 l 334 700 m 334 565 q 260 525 282 565 q 238 394 238 485 l 238 394 l 238 295 q 260 163 238 203 q 334 123 282 123 l 334 123 q 407 163 386 123 q 428 295 428 203 l 428 295 l 428 394 q 407 526 428 486 q 334 565 386 565 l 334 565"},"1":{"ha":667,"x_min":105,"x_max":624,"o":"m 467 154 l 624 154 l 624 0 l 105 0 l 105 154 l 268 154 l 268 465 l 105 465 l 105 581 q 255 617 172 585 q 400 689 338 648 l 400 689 l 467 689 l 467 154"},"2":{"ha":667,"x_min":49,"x_max":619,"o":"m 346 700 q 487 675 427 700 q 579 602 546 649 q 611 493 611 555 l 611 493 q 582 388 611 435 q 509 305 553 341 q 388 217 465 269 l 388 217 q 318 169 345 189 l 318 169 l 619 169 l 619 0 l 49 0 l 49 48 q 74 143 49 101 q 145 226 98 184 l 145 226 q 283 340 193 268 l 283 340 q 384 427 355 397 q 413 486 413 457 l 413 486 q 392 538 413 517 q 327 559 370 559 l 327 559 q 256 533 282 559 q 230 465 230 507 l 230 465 l 230 445 l 52 445 q 51 467 51 453 l 51 467 q 127 638 51 575 q 346 700 202 700 l 346 700"},"3":{"ha":667,"x_min":42,"x_max":625,"o":"m 339 700 q 482 675 421 700 q 574 608 542 650 q 605 513 605 565 l 605 513 q 577 420 605 461 q 505 361 549 378 l 505 361 l 505 357 q 594 295 562 339 q 625 187 625 250 l 625 187 q 549 44 621 99 q 335 -12 476 -12 l 335 -12 q 172 14 238 -12 q 74 85 106 40 q 42 186 42 130 l 42 186 l 42 207 l 218 207 q 322 125 218 125 l 322 125 q 426 217 426 125 l 426 217 q 407 271 426 252 q 356 289 387 289 l 356 289 l 283 289 l 283 412 l 340 412 q 391 431 371 412 q 410 484 410 449 l 410 484 q 387 540 410 517 q 322 563 363 563 l 322 563 q 255 541 279 563 q 231 487 231 519 l 231 487 l 64 487 l 64 512 q 97 607 64 564 q 192 675 129 650 q 339 700 254 700 l 339 700"},"4":{"ha":667,"x_min":23,"x_max":644,"o":"m 411 700 q 363 571 404 648 q 266 416 322 493 q 160 288 209 338 l 160 288 l 358 288 l 358 431 q 421 535 389 475 q 463 634 453 595 l 463 634 l 548 634 l 548 288 l 644 288 l 644 141 l 548 141 l 548 0 l 358 0 l 358 141 l 23 141 l 23 290 q 130 479 77 368 q 215 700 183 590 l 215 700 l 411 700"},"5":{"ha":667,"x_min":39,"x_max":625,"o":"m 574 518 l 247 518 l 239 414 q 259 428 239 416 q 312 449 279 439 q 386 459 345 459 l 386 459 q 561 397 496 459 q 625 225 625 334 l 625 225 q 590 105 625 159 q 491 20 555 51 q 343 -12 427 -12 l 343 -12 q 118 51 196 -12 q 39 222 39 114 l 39 222 l 215 222 q 243 154 215 181 q 322 126 271 126 l 322 126 q 401 155 373 126 q 428 228 428 183 l 428 228 q 401 303 428 274 q 323 331 373 331 l 323 331 q 266 319 285 331 q 238 295 246 306 q 227 281 229 284 l 227 281 l 69 303 l 98 688 l 574 688 l 574 518"},"6":{"ha":667,"x_min":41,"x_max":631,"o":"m 339 700 q 539 640 464 700 q 614 468 614 579 l 614 468 l 436 468 l 436 475 q 412 540 436 514 q 342 565 388 565 l 342 565 q 269 533 295 565 q 242 445 242 500 l 242 445 l 242 387 q 311 426 271 413 q 387 439 351 439 l 387 439 q 512 415 456 439 q 599 343 567 390 q 631 228 631 295 l 631 228 q 553 51 631 114 q 339 -12 474 -12 l 339 -12 q 115 71 188 -12 q 41 327 41 153 l 41 327 q 114 612 41 524 q 339 700 186 700 l 339 700 m 340 319 q 268 294 293 319 q 242 221 242 268 l 242 221 q 267 149 242 174 q 339 123 292 123 l 339 123 q 413 148 387 123 q 438 219 438 172 l 438 219 q 413 293 438 266 q 340 319 387 319 l 340 319"},"7":{"ha":667,"x_min":45,"x_max":625,"o":"m 625 597 q 446 327 511 456 q 380 59 380 198 l 380 59 l 380 0 l 158 0 q 217 268 158 136 q 375 516 275 399 l 375 516 l 45 516 l 45 688 l 625 688 l 625 597"},"8":{"ha":667,"x_min":41,"x_max":626,"o":"m 332 700 q 468 676 407 700 q 565 607 529 652 q 600 497 600 561 l 600 497 q 579 413 600 444 q 516 352 558 382 l 516 352 l 516 348 q 599 282 571 317 q 626 189 626 246 l 626 189 q 547 40 626 92 q 332 -12 468 -12 l 332 -12 q 119 40 196 -12 q 41 189 41 92 l 41 189 q 68 282 41 246 q 150 348 95 317 l 150 348 l 150 352 q 87 413 108 382 q 66 497 66 444 l 66 497 q 101 607 66 561 q 197 676 136 652 q 332 700 257 700 l 332 700 m 332 565 q 265 547 289 565 q 240 489 240 528 l 240 489 q 266 433 240 451 q 332 414 291 414 l 332 414 q 400 433 373 414 q 427 489 427 451 l 427 489 q 401 547 427 528 q 332 565 375 565 l 332 565 m 332 287 q 267 266 293 287 q 240 205 240 244 l 240 205 q 265 145 240 166 q 332 123 290 123 l 332 123 q 401 145 374 123 q 427 205 427 166 l 427 205 q 400 266 427 244 q 332 287 372 287 l 332 287"},"9":{"ha":667,"x_min":36,"x_max":626,"o":"m 328 700 q 553 618 479 700 q 626 361 626 535 l 626 361 q 554 76 626 164 q 328 -12 481 -12 l 328 -12 q 128 49 203 -12 q 53 220 53 109 l 53 220 l 231 220 l 231 213 q 255 149 231 174 q 325 123 279 123 l 325 123 q 399 156 372 123 q 425 243 425 188 l 425 243 l 425 301 q 356 262 396 275 q 280 249 316 249 l 280 249 q 156 274 211 249 q 68 346 100 298 q 36 460 36 393 l 36 460 q 115 637 36 574 q 328 700 193 700 l 328 700 m 327 565 q 255 540 280 565 q 229 467 229 514 l 229 467 q 254 395 229 420 q 326 369 279 369 l 326 369 q 400 394 374 369 q 425 465 425 418 l 425 465 q 400 539 425 512 q 327 565 374 565 l 327 565"}," ":{"ha":333,"x_min":0,"x_max":0,"o":""},"A":{"ha":778,"x_min":10,"x_max":769,"o":"m 769 0 l 535 0 l 506 97 l 265 97 l 236 0 l 10 0 l 261 688 l 518 688 l 769 0 m 384 496 l 311 251 l 460 251 l 388 496 l 384 496"},"B":{"ha":778,"x_min":74,"x_max":738,"o":"m 532 688 q 628 667 584 688 q 697 606 671 645 q 722 519 722 567 l 722 519 q 607 359 722 392 l 607 359 l 607 355 q 738 183 738 325 l 738 183 q 712 88 738 129 q 639 23 685 46 q 538 0 593 0 l 538 0 l 74 0 l 74 688 l 532 688 m 295 537 l 295 420 l 447 420 q 484 436 469 420 q 498 474 498 451 l 498 474 l 498 484 q 483 522 498 506 q 447 537 468 537 l 447 537 l 295 537 m 295 278 l 295 160 l 463 160 q 500 176 485 160 q 514 214 514 191 l 514 214 l 514 224 q 500 263 514 247 q 463 278 485 278 l 463 278 l 295 278"},"C":{"ha":778,"x_min":45,"x_max":733,"o":"m 402 700 q 644 624 555 700 q 733 405 733 547 l 733 405 l 522 405 q 491 500 522 465 q 401 535 459 535 l 401 535 q 303 493 334 535 q 271 376 271 451 l 271 376 l 271 312 q 303 196 271 238 q 399 153 334 153 l 399 153 q 496 186 463 153 q 529 279 529 219 l 529 279 l 733 279 q 647 63 733 138 q 402 -12 560 -12 l 402 -12 q 136 78 226 -12 q 45 344 45 168 l 45 344 q 136 610 45 520 q 402 700 226 700 l 402 700"},"D":{"ha":778,"x_min":74,"x_max":733,"o":"m 372 688 q 733 344 733 688 l 733 344 q 372 0 733 0 l 372 0 l 74 0 l 74 688 l 372 688 m 295 523 l 295 165 l 368 165 q 507 314 507 165 l 507 314 l 507 374 q 368 523 507 523 l 368 523 l 295 523"},"E":{"ha":722,"x_min":74,"x_max":676,"o":"m 74 0 l 74 688 l 669 688 l 669 523 l 295 523 l 295 428 l 615 428 l 615 270 l 295 270 l 295 165 l 676 165 l 676 0 l 74 0"},"F":{"ha":667,"x_min":74,"x_max":630,"o":"m 74 0 l 74 688 l 630 688 l 630 523 l 295 523 l 295 405 l 583 405 l 583 247 l 295 247 l 295 0 l 74 0"},"G":{"ha":833,"x_min":45,"x_max":770,"o":"m 420 700 q 598 670 519 700 q 724 582 677 640 q 770 439 770 523 l 770 439 l 559 439 q 521 509 559 482 q 429 535 483 535 l 429 535 q 311 494 351 535 q 271 376 271 452 l 271 376 l 271 312 q 311 195 271 236 q 429 153 351 153 l 429 153 q 521 179 483 153 q 559 244 559 204 l 559 244 l 403 244 l 403 384 l 770 384 l 770 0 l 656 0 l 634 68 q 388 -12 540 -12 l 388 -12 q 131 78 217 -12 q 45 344 45 167 l 45 344 q 143 610 45 519 q 420 700 240 700 l 420 700"},"H":{"ha":833,"x_min":74,"x_max":759,"o":"m 759 0 l 538 0 l 538 261 l 295 261 l 295 0 l 74 0 l 74 688 l 295 688 l 295 437 l 538 437 l 538 688 l 759 688 l 759 0"},"I":{"ha":389,"x_min":84,"x_max":305,"o":"m 305 0 l 84 0 l 84 688 l 305 688 l 305 0"},"J":{"ha":667,"x_min":23,"x_max":593,"o":"m 593 239 q 520 49 593 110 q 308 -12 446 -12 l 308 -12 q 97 49 170 -12 q 23 239 23 110 l 23 239 l 23 248 l 230 248 l 230 240 q 248 173 230 193 q 301 153 265 153 l 301 153 q 355 173 337 153 q 372 240 372 193 l 372 240 l 372 688 l 593 688 l 593 239"},"K":{"ha":833,"x_min":74,"x_max":819,"o":"m 295 394 l 540 688 l 814 688 l 567 405 l 819 0 l 558 0 l 415 252 l 295 154 l 295 0 l 74 0 l 74 688 l 295 688 l 295 394"},"L":{"ha":667,"x_min":74,"x_max":648,"o":"m 74 0 l 74 688 l 295 688 l 295 176 l 648 176 l 648 0 l 74 0"},"M":{"ha":944,"x_min":60,"x_max":884,"o":"m 884 0 l 665 0 l 665 248 q 669 343 665 294 q 676 424 672 391 q 681 466 680 457 l 681 466 l 677 466 l 550 0 l 377 0 l 249 465 l 245 465 q 251 424 246 456 q 259 343 255 391 q 263 248 263 294 l 263 248 l 263 0 l 60 0 l 60 688 l 372 688 l 476 291 l 480 291 l 583 688 l 884 688 l 884 0"},"N":{"ha":833,"x_min":74,"x_max":759,"o":"m 759 0 l 566 0 l 277 334 l 277 0 l 74 0 l 74 688 l 267 688 l 556 349 l 556 688 l 759 688 l 759 0"},"O":{"ha":833,"x_min":45,"x_max":788,"o":"m 416 700 q 691 609 594 700 q 788 344 788 518 l 788 344 q 691 79 788 170 q 416 -12 594 -12 l 416 -12 q 142 79 238 -12 q 45 344 45 169 l 45 344 q 142 610 45 519 q 416 700 238 700 l 416 700 m 416 535 q 308 492 345 535 q 271 376 271 449 l 271 376 l 271 312 q 308 196 271 239 q 416 153 345 153 l 416 153 q 525 196 487 153 q 562 312 562 239 l 562 312 l 562 376 q 525 492 562 449 q 416 535 487 535 l 416 535"},"P":{"ha":722,"x_min":74,"x_max":680,"o":"m 460 688 q 574 659 524 688 q 652 578 624 629 q 680 462 680 526 l 680 462 l 680 449 q 652 333 680 385 q 574 252 624 281 q 460 222 524 222 l 460 222 l 295 222 l 295 0 l 74 0 l 74 688 l 460 688 m 295 525 l 295 383 l 386 383 q 439 401 421 383 q 456 450 456 419 l 456 450 l 456 458 q 439 508 456 490 q 386 525 421 525 l 386 525 l 295 525"},"Q":{"ha":833,"x_min":45,"x_max":788,"o":"m 45 344 q 142 610 45 519 q 416 700 238 700 l 416 700 q 691 609 594 700 q 788 344 788 518 l 788 344 q 745 149 788 228 q 618 28 701 69 l 618 28 l 775 -131 l 512 -131 l 406 -12 q 139 82 232 -9 q 45 344 45 172 l 45 344 m 562 376 q 525 492 562 449 q 416 535 487 535 l 416 535 q 308 492 345 535 q 271 376 271 449 l 271 376 l 271 312 q 308 196 271 239 q 416 153 345 153 l 416 153 q 525 196 487 153 q 562 312 562 239 l 562 312 l 562 376"},"R":{"ha":778,"x_min":74,"x_max":747,"o":"m 727 477 q 693 363 727 414 q 594 288 659 312 l 594 288 l 747 0 l 499 0 l 377 251 l 295 251 l 295 0 l 74 0 l 74 688 l 495 688 q 622 660 569 688 q 701 583 674 631 q 727 477 727 534 l 727 477 m 502 468 q 484 513 502 495 q 440 531 466 531 l 440 531 l 295 531 l 295 404 l 440 404 q 484 423 466 404 q 502 468 502 441 l 502 468"},"S":{"ha":722,"x_min":43,"x_max":686,"o":"m 363 700 q 580 647 495 700 q 667 488 665 593 l 667 488 l 667 476 l 460 476 l 460 480 q 438 530 460 510 q 371 550 416 550 l 371 550 q 304 537 327 550 q 280 505 280 524 l 280 505 q 312 465 280 478 q 415 438 344 452 l 415 438 q 552 403 498 421 q 645 342 605 384 q 686 228 685 300 l 686 228 q 604 47 686 106 q 383 -12 521 -12 l 383 -12 q 133 42 222 -12 q 43 233 43 96 l 43 233 l 252 233 q 279 164 252 181 q 363 146 306 146 l 363 146 q 433 155 405 146 q 460 192 460 164 l 460 192 q 430 230 460 217 q 330 256 399 242 l 330 256 q 191 294 246 274 q 95 358 136 313 q 54 480 54 403 l 54 480 q 142 647 54 593 q 363 700 229 700 l 363 700"},"T":{"ha":722,"x_min":23,"x_max":695,"o":"m 695 512 l 470 512 l 470 0 l 249 0 l 249 512 l 23 512 l 23 688 l 695 688 l 695 512"},"U":{"ha":833,"x_min":74,"x_max":759,"o":"m 759 277 q 670 62 759 136 q 417 -12 581 -12 l 417 -12 q 164 62 253 -12 q 74 277 74 136 l 74 277 l 74 688 l 295 688 l 295 280 q 326 188 295 222 q 416 153 357 153 l 416 153 q 507 188 475 153 q 538 280 538 223 l 538 280 l 538 688 l 759 688 l 759 277"},"V":{"ha":778,"x_min":17,"x_max":760,"o":"m 517 0 l 261 0 l 17 688 l 253 688 l 391 228 l 395 228 l 534 688 l 760 688 l 517 0"},"W":{"ha":1000,"x_min":5,"x_max":995,"o":"m 834 0 l 591 0 l 502 419 l 498 419 l 409 0 l 166 0 l 5 688 l 235 688 l 314 298 l 318 298 l 396 688 l 614 688 l 697 298 l 701 298 l 775 688 l 995 688 l 834 0"},"X":{"ha":778,"x_min":4,"x_max":778,"o":"m 532 363 l 778 0 l 510 0 l 383 214 l 379 214 l 252 0 l 4 0 l 250 364 l 28 688 l 295 688 l 399 512 l 403 512 l 508 688 l 755 688 l 532 363"},"Y":{"ha":778,"x_min":7,"x_max":770,"o":"m 501 267 l 501 0 l 280 0 l 280 267 l 7 688 l 261 688 l 393 459 l 397 459 l 529 688 l 770 688 l 501 267"},"Z":{"ha":722,"x_min":24,"x_max":691,"o":"m 683 617 l 364 165 l 691 165 l 691 0 l 24 0 l 24 71 l 343 523 l 48 523 l 48 688 l 683 688 l 683 617"},"a":{"ha":667,"x_min":30,"x_max":662,"o":"m 321 540 q 518 500 442 540 q 594 368 594 459 l 594 368 l 594 162 q 602 134 594 145 q 626 123 610 123 l 626 123 l 662 123 l 662 8 q 647 2 659 6 q 611 -7 634 -3 q 558 -12 588 -12 l 558 -12 q 463 6 500 -12 q 411 54 425 23 l 411 54 q 326 6 373 24 q 216 -12 279 -12 l 216 -12 q 30 136 30 -12 l 30 136 q 72 254 30 213 q 191 309 113 294 q 395 324 269 324 l 395 324 l 395 350 q 374 397 395 381 q 318 413 352 413 l 318 413 q 265 402 287 413 q 242 367 242 391 l 242 367 l 242 363 l 46 363 q 45 377 45 368 l 45 377 q 117 496 45 452 q 321 540 188 540 l 321 540 m 395 230 q 270 212 310 230 q 229 162 229 193 l 229 162 q 297 112 229 112 l 297 112 q 366 133 336 112 q 395 185 395 154 l 395 185 l 395 230"},"b":{"ha":667,"x_min":61,"x_max":631,"o":"m 260 479 q 408 540 317 540 l 408 540 q 573 471 515 540 q 631 265 631 401 l 631 265 q 573 58 631 128 q 408 -12 515 -12 l 408 -12 q 240 75 298 -12 l 240 75 l 223 0 l 61 0 l 61 725 l 260 725 l 260 479 m 346 393 q 280 362 302 393 q 258 280 258 330 l 258 280 l 258 247 q 280 166 258 197 q 346 135 302 135 l 346 135 q 432 237 432 135 l 432 237 l 432 290 q 346 393 432 393 l 346 393"},"c":{"ha":667,"x_min":36,"x_max":624,"o":"m 333 540 q 544 485 463 540 q 624 315 624 429 l 624 315 l 431 315 q 333 405 431 405 l 333 405 q 235 292 235 405 l 235 292 l 235 235 q 337 123 235 123 l 337 123 q 439 215 439 123 l 439 215 l 624 215 q 544 44 624 100 q 333 -12 463 -12 l 333 -12 q 115 58 194 -12 q 36 264 36 128 l 36 264 q 115 470 36 400 q 333 540 194 540 l 333 540"},"d":{"ha":667,"x_min":36,"x_max":606,"o":"m 606 0 l 444 0 l 427 75 q 259 -12 369 -12 l 259 -12 q 94 58 152 -12 q 36 265 36 128 l 36 265 q 94 471 36 401 q 259 540 152 540 l 259 540 q 407 479 350 540 l 407 479 l 407 725 l 606 725 l 606 0 m 321 393 q 235 290 235 393 l 235 290 l 235 237 q 321 135 235 135 l 321 135 q 387 166 365 135 q 409 247 409 197 l 409 247 l 409 280 q 387 362 409 330 q 321 393 365 393 l 321 393"},"e":{"ha":667,"x_min":36,"x_max":631,"o":"m 333 540 q 555 472 478 540 q 631 264 631 404 l 631 264 l 631 230 l 235 230 q 261 144 235 173 q 341 115 286 115 l 341 115 q 415 136 391 115 q 438 192 438 157 l 438 192 l 631 192 q 558 42 631 96 q 345 -12 485 -12 l 345 -12 q 117 57 198 -12 q 36 264 36 125 l 36 264 q 115 470 36 400 q 333 540 194 540 l 333 540 m 341 413 q 236 324 247 413 l 236 324 l 430 324 q 407 389 430 365 q 341 413 383 413 l 341 413"},"f":{"ha":389,"x_min":8,"x_max":383,"o":"m 275 737 q 330 732 297 737 q 383 719 363 726 l 383 719 l 383 602 l 337 602 q 293 590 305 602 q 281 549 281 578 l 281 549 l 281 528 l 383 528 l 383 393 l 281 393 l 281 0 l 82 0 l 82 393 l 8 393 l 8 528 l 82 528 l 82 550 q 132 695 82 652 q 275 737 182 737 l 275 737"},"g":{"ha":667,"x_min":5,"x_max":654,"o":"m 654 627 q 624 533 654 566 q 532 484 593 500 l 532 484 q 578 433 561 462 q 594 370 594 403 l 594 370 q 531 243 594 286 q 372 200 467 200 l 372 200 l 296 200 q 233 171 233 200 l 233 171 q 247 149 233 157 q 296 140 261 140 l 296 140 l 476 140 q 609 94 564 140 q 654 -29 654 48 l 654 -29 q 624 -127 654 -86 q 543 -189 594 -168 q 432 -210 492 -210 l 432 -210 l 138 -210 q 72 -193 102 -210 q 23 -146 41 -176 q 5 -81 5 -117 l 5 -81 q 29 -10 5 -42 q 89 37 53 21 l 89 37 q 51 78 65 54 q 37 130 37 102 l 37 130 q 66 201 37 169 q 138 243 95 232 l 138 243 q 76 301 99 268 q 53 369 53 333 l 53 369 q 128 501 53 461 q 325 540 202 540 l 325 540 q 412 534 379 540 l 412 534 q 476 591 461 565 q 490 627 490 616 l 490 627 l 654 627 m 323 436 q 269 419 290 436 q 248 370 248 402 l 248 370 q 268 321 248 337 q 323 304 287 304 l 323 304 q 380 321 359 304 q 400 370 400 337 l 400 370 q 380 420 400 403 q 323 436 359 436 l 323 436 m 246 0 q 209 -12 223 0 q 194 -48 194 -25 l 194 -48 q 209 -85 194 -71 q 246 -99 224 -99 l 246 -99 l 402 -99 q 440 -85 424 -99 q 455 -49 455 -72 l 455 -49 q 440 -13 455 -26 q 402 0 425 0 l 402 0 l 246 0"},"h":{"ha":667,"x_min":60,"x_max":608,"o":"m 259 473 q 334 523 291 505 q 424 540 377 540 l 424 540 q 562 489 516 540 q 608 342 608 438 l 608 342 l 608 0 l 409 0 l 409 318 q 392 373 409 352 q 342 393 374 393 l 342 393 q 282 369 305 393 q 259 310 259 345 l 259 310 l 259 0 l 60 0 l 60 725 l 259 725 l 259 473"},"i":{"ha":333,"x_min":67,"x_max":266,"o":"m 266 590 l 67 590 l 67 725 l 266 725 l 266 590 m 266 0 l 67 0 l 67 528 l 266 528 l 266 0"},"j":{"ha":333,"x_min":-41,"x_max":266,"o":"m 266 590 l 67 590 l 67 725 l 266 725 l 266 590 m 266 -29 q 223 -167 266 -125 q 83 -210 179 -210 l 83 -210 q 19 -205 57 -210 q -41 -192 -19 -200 l -41 -192 l -41 -73 l 11 -73 q 67 -9 67 -73 l 67 -9 l 67 528 l 266 528 l 266 -29"},"k":{"ha":667,"x_min":60,"x_max":665,"o":"m 259 326 l 428 528 l 660 528 l 465 315 l 665 0 l 439 0 l 328 181 l 259 114 l 259 0 l 60 0 l 60 726 l 259 726 l 259 326"},"l":{"ha":333,"x_min":67,"x_max":266,"o":"m 266 0 l 67 0 l 67 725 l 266 725 l 266 0"},"m":{"ha":1000,"x_min":60,"x_max":941,"o":"m 761 540 q 896 489 851 540 q 941 342 941 437 l 941 342 l 941 0 l 742 0 l 742 318 q 726 373 742 352 q 679 393 709 393 l 679 393 q 622 369 644 393 q 600 310 600 345 l 600 310 l 600 0 l 401 0 l 401 318 q 385 373 401 352 q 338 393 368 393 l 338 393 q 281 369 303 393 q 259 310 259 345 l 259 310 l 259 0 l 60 0 l 60 528 l 223 528 l 236 449 q 316 516 266 491 q 420 540 365 540 l 420 540 q 580 449 539 540 l 580 449 q 660 516 611 491 q 761 540 708 540 l 761 540"},"n":{"ha":667,"x_min":60,"x_max":608,"o":"m 424 540 q 562 489 516 540 q 608 342 608 438 l 608 342 l 608 0 l 409 0 l 409 318 q 392 373 409 352 q 342 393 374 393 l 342 393 q 282 369 305 393 q 259 310 259 345 l 259 310 l 259 0 l 60 0 l 60 528 l 223 528 l 236 448 q 318 515 267 490 q 424 540 368 540 l 424 540"},"o":{"ha":667,"x_min":36,"x_max":631,"o":"m 333 540 q 552 470 472 540 q 631 264 631 399 l 631 264 q 552 59 631 129 q 333 -12 472 -12 l 333 -12 q 115 58 194 -12 q 36 264 36 128 l 36 264 q 115 470 36 400 q 333 540 194 540 l 333 540 m 333 405 q 235 292 235 405 l 235 292 l 235 235 q 333 123 235 123 l 333 123 q 432 235 432 123 l 432 235 l 432 292 q 333 405 432 405 l 333 405"},"p":{"ha":667,"x_min":61,"x_max":631,"o":"m 408 540 q 573 470 515 540 q 631 263 631 400 l 631 263 q 573 58 631 127 q 408 -12 515 -12 l 408 -12 q 260 48 316 -12 l 260 48 l 260 -197 l 61 -197 l 61 528 l 223 528 l 240 453 q 408 540 298 540 l 408 540 m 346 393 q 280 362 302 393 q 258 281 258 331 l 258 281 l 258 248 q 280 167 258 198 q 346 135 302 135 l 346 135 q 432 238 432 135 l 432 238 l 432 291 q 346 393 432 393 l 346 393"},"q":{"ha":667,"x_min":36,"x_max":606,"o":"m 259 540 q 427 453 369 540 l 427 453 l 444 528 l 606 528 l 606 -197 l 407 -197 l 407 48 q 259 -12 351 -12 l 259 -12 q 94 58 152 -12 q 36 263 36 127 l 36 263 q 94 470 36 400 q 259 540 152 540 l 259 540 m 321 393 q 235 291 235 393 l 235 291 l 235 238 q 321 135 235 135 l 321 135 q 387 167 365 135 q 409 248 409 198 l 409 248 l 409 281 q 387 362 409 331 q 321 393 365 393 l 321 393"},"r":{"ha":444,"x_min":60,"x_max":440,"o":"m 381 541 q 422 536 404 541 q 440 529 440 530 l 440 529 l 440 362 l 376 362 q 287 330 314 362 q 259 235 259 298 l 259 235 l 259 0 l 60 0 l 60 528 l 223 528 l 236 448 q 293 518 254 494 q 381 541 332 541 l 381 541"},"s":{"ha":611,"x_min":32,"x_max":577,"o":"m 311 540 q 491 499 417 540 q 564 370 564 457 l 564 370 l 379 370 q 353 411 379 399 l 353 411 q 308 421 335 421 l 308 421 q 236 387 236 421 l 236 387 q 261 360 236 368 q 343 343 286 352 l 343 343 q 460 320 413 333 q 542 272 507 306 q 577 175 577 237 l 577 175 q 502 31 577 74 q 304 -12 426 -12 l 304 -12 q 172 8 234 -12 q 71 68 110 27 q 32 172 32 109 l 32 172 l 217 172 l 217 168 q 246 121 218 134 q 304 107 273 107 l 304 107 q 387 146 387 107 l 387 146 q 361 175 387 166 q 276 194 335 184 l 276 194 q 160 220 205 206 q 80 268 114 234 q 46 361 46 301 l 46 361 q 120 499 46 458 q 311 540 193 540 l 311 540"},"t":{"ha":444,"x_min":27,"x_max":412,"o":"m 300 528 l 412 528 l 412 393 l 300 393 l 300 192 q 312 140 300 156 q 356 123 324 123 l 356 123 l 412 123 l 412 6 q 350 -7 388 -2 q 284 -12 312 -12 l 284 -12 q 149 20 196 -12 q 101 129 101 52 l 101 129 l 101 393 l 27 393 l 27 528 l 109 528 l 152 688 l 300 688 l 300 528"},"u":{"ha":667,"x_min":58,"x_max":606,"o":"m 606 0 l 443 0 l 430 80 q 349 13 399 37 q 242 -12 298 -12 l 242 -12 q 104 39 150 -12 q 58 186 58 90 l 58 186 l 58 528 l 257 528 l 257 210 q 275 156 257 176 q 324 135 292 135 l 324 135 q 384 159 361 135 q 407 218 407 183 l 407 218 l 407 528 l 606 528 l 606 0"},"v":{"ha":611,"x_min":0,"x_max":611,"o":"m 409 0 l 200 0 l 0 528 l 214 528 l 311 199 l 318 199 l 415 528 l 611 528 l 409 0"},"w":{"ha":944,"x_min":0,"x_max":944,"o":"m 750 0 l 556 0 l 474 294 l 470 294 l 387 0 l 193 0 l 0 528 l 214 528 l 294 216 l 301 216 l 384 528 l 582 528 l 662 216 l 669 216 l 750 528 l 944 528 l 750 0"},"x":{"ha":667,"x_min":4,"x_max":662,"o":"m 464 275 l 662 0 l 430 0 l 330 166 l 326 166 l 225 0 l 4 0 l 207 280 l 24 528 l 258 528 l 342 388 l 346 388 l 430 528 l 650 528 l 464 275"},"y":{"ha":611,"x_min":0,"x_max":611,"o":"m 423 16 q 323 -152 382 -95 q 156 -210 263 -210 l 156 -210 q 41 -192 91 -210 l 41 -192 l 41 -73 l 121 -73 q 210 0 196 -73 l 210 0 l 0 528 l 214 528 l 315 177 l 322 177 l 415 528 l 611 528 l 423 16"},"z":{"ha":556,"x_min":20,"x_max":535,"o":"m 526 466 l 302 135 l 535 135 l 535 0 l 20 0 l 20 65 l 242 393 l 32 393 l 32 528 l 526 528 l 526 466"},".":{"ha":333,"x_min":61,"x_max":273,"o":"m 273 0 l 61 0 l 61 199 l 273 199 l 273 0"},",":{"ha":333,"x_min":60,"x_max":273,"o":"m 273 11 l 168 -183 l 60 -183 l 142 0 l 61 0 l 61 199 l 273 199 l 273 11"},"!":{"ha":333,"x_min":47,"x_max":286,"o":"m 229 246 l 102 246 l 47 688 l 286 688 l 229 246 m 265 0 l 67 0 l 67 185 l 265 185 l 265 0"},"?":{"ha":611,"x_min":37,"x_max":566,"o":"m 310 700 q 444 675 386 700 q 534 604 502 650 q 566 496 566 557 l 566 496 q 549 427 566 457 q 509 375 532 396 q 451 329 486 354 l 451 329 q 409 294 422 307 q 395 267 395 281 l 395 267 l 395 246 l 224 246 l 224 296 q 239 340 224 320 q 286 389 254 359 l 286 389 q 337 441 319 418 q 354 492 354 464 l 354 492 q 336 542 354 521 q 288 562 318 562 l 288 562 q 223 478 223 562 l 223 478 q 224 451 223 460 l 224 451 l 40 451 q 38 467 39 458 q 37 489 37 476 l 37 489 q 72 601 37 553 q 170 674 107 648 q 310 700 232 700 l 310 700 m 410 0 l 212 0 l 212 185 l 410 185 l 410 0"},":":{"ha":333,"x_min":61,"x_max":273,"o":"m 273 328 l 61 328 l 61 528 l 273 528 l 273 328 m 273 0 l 61 0 l 61 199 l 273 199 l 273 0"},"'":{"ha":278,"x_min":57,"x_max":220,"o":"m 220 541 l 172 398 l 104 398 l 57 541 l 57 688 l 220 688 l 220 541"},"\"":{"ha":500,"x_min":59,"x_max":441,"o":"m 222 541 l 175 398 l 106 398 l 59 541 l 59 688 l 222 688 l 222 541 m 441 541 l 393 398 l 325 398 l 278 541 l 278 688 l 441 688 l 441 541"},"-":{"ha":333,"x_min":39,"x_max":294,"o":"m 294 196 l 39 196 l 39 354 l 294 354 l 294 196"},"&":{"ha":889,"x_min":75,"x_max":888,"o":"m 417 700 q 594 675 519 700 q 709 607 669 650 q 749 512 749 564 l 749 512 l 749 487 l 572 487 q 536 539 572 518 q 430 559 499 559 l 430 559 q 333 535 366 559 q 299 475 299 510 l 299 475 q 320 428 299 444 q 370 412 340 412 l 370 412 l 474 412 l 474 289 l 348 289 q 298 271 317 289 q 278 217 278 252 l 278 217 q 313 153 278 176 q 422 129 347 129 l 422 129 q 572 218 572 129 l 572 218 l 572 412 l 888 412 l 888 289 l 751 289 l 751 222 q 672 49 751 110 q 423 -12 592 -12 l 423 -12 q 162 44 249 -12 q 75 192 75 100 l 75 192 q 107 296 75 252 q 195 357 138 339 l 195 357 l 195 361 q 124 416 152 377 q 95 503 95 455 l 95 503 q 132 602 95 557 q 241 674 168 647 q 417 700 314 700 l 417 700"}}}
